<svg width="103" height="84" viewBox="0 0 103 84" fill="none" xmlns="http://www.w3.org/2000/svg">
<g id="Group 11">
<g id="Group 10">
<g id="Group 9">
<g id="Group 8">
<path id="Vector 54" d="M13 72.4607C12 75.1274 8.8 80.0607 4 78.4607V45.9608C6.96974 45.023 12.6366 44.7008 13 50.273C18.3333 49.5023 30.5 48.1607 36.5 48.9607C42.5 49.7607 64 59.4607 64 59.4607C64 59.4607 68.5 61.4607 68.5 64.4607L94.5 57.4607C98 56.6274 104.5 56.8607 102.5 64.4607C101.3 66.0607 77.6667 77.4607 66 82.9607C62.6667 84.1274 53.9 85.1607 45.5 79.9607C35 73.4607 21 71.4607 13 72.4607Z" fill="url(#paint0_linear_260_3179)"/>
<path id="Vector 53" d="M96.7344 5.42261H36.2344C35.6821 5.42261 35.2344 5.87032 35.2344 6.42261V39.4226C35.2344 39.9749 35.6821 40.4226 36.2344 40.4226H96.7344C97.2867 40.4226 97.7344 39.9749 97.7344 39.4226V6.42261C97.7344 5.87032 97.2867 5.42261 96.7344 5.42261Z" fill="url(#paint1_linear_260_3179)"/>
<path id="Vector 50" d="M10 66.5C9.83333 62.3334 9.6 52.3001 10 45.5001C10.0249 45.0773 10.0241 44.6818 10 44.3123M10 66.5C9 69.1667 5.8 74.1 1 72.5V40.0001C3.96974 39.0623 9.6366 38.7401 10 44.3123M10 66.5C18 65.5 32 67.5 42.5 74C50.9 79.2 59.6667 78.1667 63 77C74.6667 71.5 98.3 60.1 99.5 58.5C101.5 50.9 95 50.6667 91.5 51.5L65.5 58.5M40 58.5L61 64.5C63 64.6667 66.5 62 65.5 58.5M65.5 58.5C65.5 55.5 61 53.5 61 53.5C61 53.5 39.5 43.8 33.5 43C27.5 42.2 15.3333 43.5416 10 44.3123" stroke="black" stroke-width="2"/>
<path id="Vector 51" d="M92.5 1H32C31.4477 1 31 1.44772 31 2V35C31 35.5523 31.4477 36 32 36H92.5C93.0523 36 93.5 35.5523 93.5 35V2C93.5 1.44772 93.0523 1 92.5 1Z" stroke="black" stroke-width="2"/>
<path id="Vector 52" d="M41.9371 7.62526C41.3837 9.92146 38.326 11.534 36.2184 12.271C35.7969 12.4183 35.5 12.8078 35.5 13.2543V23.074C35.5 23.5965 35.904 24.0247 36.4193 24.1114C40.1089 24.7322 41.5215 27.2037 41.8925 29.0076C42.0037 29.5486 42.4477 30 43 30H81.1529C81.6417 30 82.0527 29.6441 82.1744 29.1707C83.0125 25.91 85.2399 24.7761 86.8982 24.534C87.4836 24.4486 88 23.9866 88 23.395V13.2543C88 12.8078 87.7001 12.4178 87.2766 12.2765C83.6251 11.0586 82.3148 9.181 82.0083 7.77C81.8702 7.13426 81.3698 6.5 80.7192 6.5H43.1328C42.5313 6.5 42.0781 7.04051 41.9371 7.62526Z" stroke="black" stroke-width="2"/>
<circle id="Ellipse 17" cx="61.5" cy="18" r="8" stroke="black" stroke-width="2"/>
<circle id="Ellipse 18" cx="78.5" cy="18" r="4" stroke="black" stroke-width="2"/>
<circle id="Ellipse 19" cx="45.5" cy="18" r="4" stroke="black" stroke-width="2"/>
</g>
</g>
</g>
</g>
<defs>
<linearGradient id="paint0_linear_260_3179" x1="53.4372" y1="45.4226" x2="53.4372" y2="83.9083" gradientUnits="userSpaceOnUse">
<stop offset="0.3" stop-color="#8B73CE"/>
<stop offset="1" stop-color="#5230B2"/>
</linearGradient>
<linearGradient id="paint1_linear_260_3179" x1="66.4844" y1="5.42261" x2="66.4844" y2="40.4226" gradientUnits="userSpaceOnUse">
<stop offset="0.3" stop-color="#8B73CE"/>
<stop offset="1" stop-color="#5230B2"/>
</linearGradient>
</defs>
</svg>
