<svg width="100" height="73" viewBox="0 0 100 73" fill="none" xmlns="http://www.w3.org/2000/svg">
<g id="Group 15">
<g id="Group 14">
<path id="Vector 55" d="M18.3254 6H40.548C40.9268 6 41.273 6.214 41.4424 6.55279L44.8896 13.4472C45.059 13.786 45.4053 14 45.784 14H87.666C88.2183 14 88.666 14.4477 88.666 15V24.5H97.918C98.5582 24.5 99.0335 25.0932 98.8939 25.718L88.666 71.5C88.666 72.0523 88.2183 72.5 87.666 72.5H7.66601C7.11373 72.5 6.66602 72.0523 6.66602 71.5V14C6.66602 13.4477 7.11373 13 7.66602 13H14.0066C14.4066 13 14.7682 12.7616 14.9258 12.3939L17.4063 6.60608C17.5638 6.2384 17.9254 6 18.3254 6Z" fill="url(#paint0_linear_260_3191)"/>
</g>
<g id="Group 13">
<path id="Vector 55_2" d="M83.666 19.5V10C83.666 9.44772 83.2183 9 82.666 9H40.784C40.4053 9 40.059 8.786 39.8896 8.44721L36.4424 1.55279C36.273 1.214 35.9268 1 35.548 1H13.3254C12.9254 1 12.5638 1.2384 12.4063 1.60608L9.92576 7.39392C9.76819 7.7616 9.40665 8 9.00662 8H2.66602C2.11373 8 1.66602 8.44772 1.66602 9V66.5C1.66602 67.0523 2.11373 67.5 2.66601 67.5H82.666C83.2183 67.5 83.666 67.0523 83.666 66.5V66.5M83.666 19.5H92.918C93.5582 19.5 94.0335 20.0932 93.8939 20.718L83.666 66.5M83.666 19.5V66.5M33.166 35H29.166C28.6137 35 28.166 35.4477 28.166 36V58.5C28.166 59.0523 28.6137 59.5 29.166 59.5H55.666C56.2183 59.5 56.666 59.0523 56.666 58.5V36C56.666 35.4477 56.2183 35 55.666 35H52.166M33.166 35V25.5C33.4993 22.6667 35.7535 17.5 42.166 17.5C50.166 17.5 52.166 22 52.166 25.5V35M33.166 35H52.166" stroke="black" stroke-width="2"/>
<circle id="Ellipse 20" cx="42.666" cy="44.5" r="4" stroke="black" stroke-width="2"/>
<path id="Vector 56" d="M41.666 54.5C41.666 55.0523 42.1137 55.5 42.666 55.5C43.2183 55.5 43.666 55.0523 43.666 54.5H41.666ZM41.666 48.5V54.5H43.666V48.5H41.666Z" fill="black"/>
</g>
</g>
<defs>
<linearGradient id="paint0_linear_260_3191" x1="52.916" y1="6" x2="52.916" y2="72.5" gradientUnits="userSpaceOnUse">
<stop offset="0.385" stop-color="#8B73CE"/>
<stop offset="1" stop-color="#5230B2"/>
</linearGradient>
</defs>
</svg>
